<svg xmlns="http://www.w3.org/2000/svg" viewBox="0 0 184.32 164.1"><defs><style>.cls-1{fill:#00aa39;}</style></defs><g id="레이어_2" data-name="레이어 2"><g id="레이어_2-2" data-name="레이어 2"><path class="cls-1" d="M119.78,123.4c-2.06-2.2-5.89-1.78-7.64-4.23-.45,13.92,4.1,27.84,2.2,41.64a2.12,2.12,0,0,1-.73,1.59,2.19,2.19,0,0,1-1.39.16l-39.11-4.18c-1.12-.11-2.43-.37-2.9-1.39a3.19,3.19,0,0,1,.09-2.19,77.88,77.88,0,0,1,3.7-9.39l9.91-22.25S38.76,154,26,122.46c0,0-26.89-2.41-24.32-21.49s27.23-18.62,27.4-18.85S2.51,71,15.37,51s29.88-2.57,29.88-2.57-15.63-28.7,8.68-37.6S84,22.72,84,22.72,89.27.34,109.26,1.62s15.68,23,15.68,23,23-20.3,34.63,4.5-3.33,29.8-3.33,29.8,18-14.9,25.5,7-23.5,23-23.5,23,28.52,7.74,23.26,24.87-30,8.7-30,8.7S133.31,137.91,119.78,123.4Z"/><path d="M120.84,122.34a9.57,9.57,0,0,0-3.83-2.15c-1.19-.42-2.75-.72-3.57-1.78a1.52,1.52,0,0,0-2.8.76c-.22,7.8,1,15.5,1.92,23.23a97.14,97.14,0,0,1,.74,11.81,49.84,49.84,0,0,1-.29,5.19,11.43,11.43,0,0,1-.16,1.31l-.07.31c0,.24-.08.26-.2.07a3.94,3.94,0,0,1-1.35-.14l-2-.21L85,158.15c-3.95-.42-7.94-.71-11.88-1.27-.4,0-1.25-.08-1.51-.47s.27-1.64.42-2.09a59.9,59.9,0,0,1,2.16-5.63c3.6-8.29,7.35-16.52,11-24.77.55-1.22-.68-3-2-2a91.66,91.66,0,0,1-15.46,8.31c-8.63,3.71-19.26,6.95-28.54,3.76-5.6-1.93-9.51-6.51-11.71-11.88A1.6,1.6,0,0,0,26,121l-.62-.07c-.23,0-.24,0,0,0l-.41-.06-1-.16a47,47,0,0,1-5.6-1.33c-4.66-1.41-9.49-3.66-12.56-7.59-3.64-4.66-3.49-11.31-.85-16.42,2.55-5,7.39-8,12.57-9.69a43.4,43.4,0,0,1,10.89-2,5.4,5.4,0,0,0,1.07-.12,1.53,1.53,0,0,0,.26-2.82c-.92-.58-1.95-1-2.9-1.55a32,32,0,0,1-10.4-8.76,15.25,15.25,0,0,1-1.26-16.08c3.15-6.42,9.09-12.47,16.8-11.42,4.38.61,8.53,3.12,11.62,5.94.21.19.41.37.6.57a1.51,1.51,0,0,0,2.36-1.82,39.42,39.42,0,0,1-3.29-8.37C41.72,33.86,41,27.89,43,22.52,45.78,15.11,53.7,11.66,61,10.42c6.11-1,12.37.28,16.8,4.77a20.29,20.29,0,0,1,3.81,5.42c.18.36.35.74.51,1.11-.16-.37.16.41.23.59s.19.53.27.81a1.51,1.51,0,0,0,2.89,0c1.65-7,6.26-14.32,12.82-17.82,5.38-2.86,12.83-3.2,18.25-.26,4.17,2.25,6.3,6.45,7,11a28,28,0,0,1,.19,5.88c0,.35-.05.69-.09,1s-.13,1-.06.52c0,.24-.07.48-.11.72a1.51,1.51,0,0,0,2.5,1.46l.52-.43.47-.37.24-.18.5-.37a39.47,39.47,0,0,1,5.11-3.16c4.42-2.28,9.68-3.76,14.59-2.28,7.52,2.28,11.25,10.68,13.45,17.52,1.7,5.3,2.74,11.75-.22,16.73A9.84,9.84,0,0,1,159,55.26c-.3.29-.6.57-.92.83s.11-.06-.23.18l-.42.3a15.54,15.54,0,0,1-1.37.78c-.52.27.26-.07-.23.09L157.3,60a.79.79,0,0,1,.15-.12s-.35.26-.06.05l.3-.22c.58-.42,1.17-.82,1.78-1.19A21.51,21.51,0,0,1,165,56a11.68,11.68,0,0,1,6.9,0c3,1,5.06,3.43,6.52,6.07,2.87,5.16,4.64,12.21.67,17.29-2.86,3.66-7.55,5.54-11.91,6.68a37.7,37.7,0,0,1-8.93,1.4,1.51,1.51,0,0,0-.4,3c10.25,2.79,27.35,11.33,21.67,24.54-3.27,7.61-12,8.72-19.28,7.92a42.86,42.86,0,0,1-7.52-1.53c-.87-.25-1.43-.49-2.31.13-.15.1-.28.23-.42.34s.29-.22,0,0l-.26.21-.78.55a31.14,31.14,0,0,1-11.89,5.28,17.32,17.32,0,0,1-16.21-5.43c-1.34-1.41-3.45.72-2.13,2.12a20.21,20.21,0,0,0,17.47,6.46,32.1,32.1,0,0,0,13.6-5.38,28.42,28.42,0,0,0,2.74-2l-1.46.38a43.61,43.61,0,0,0,10.23,2c5.89.49,12.36-.28,17-4.28a15.78,15.78,0,0,0,4.12-17.78c-2.38-5.44-7.63-9.23-12.73-11.93a54.72,54.72,0,0,0-11-4.47l-.4,3a45.63,45.63,0,0,0,8.85-1.28c5-1.21,10.42-3.33,13.87-7.38,4.68-5.51,3.88-12.65,1.18-18.89-1.52-3.51-3.81-6.92-7.22-8.81a13.32,13.32,0,0,0-8.47-1.4,23.54,23.54,0,0,0-11.27,5.2c-1.16,1,.08,3,1.46,2.51a12.67,12.67,0,0,0,5.78-4.49c3.64-4.84,3.57-11.34,2.26-17A46.91,46.91,0,0,0,159.07,25a21.23,21.23,0,0,0-8-7.87c-5.51-2.83-11.79-2.05-17.31.3a37,37,0,0,0-9.87,6.11L126.39,25c1.47-7.48-.12-16.64-6.53-21.4C114.4-.47,106.19-.89,99.92,1.34a26,26,0,0,0-13.24,11.4,33.81,33.81,0,0,0-4.08,9.58h2.89a22.4,22.4,0,0,0-4.56-8.13A20.79,20.79,0,0,0,63.68,7.12c-8.25.48-17.64,4-22,11.4-3.36,5.67-3.32,12.6-2,18.86A45,45,0,0,0,44,49.15l2.35-1.82a27.2,27.2,0,0,0-8.69-5.84c-6.28-2.68-13-2-18.26,2.48-5.63,4.75-9.92,12.66-8.78,20.18.82,5.43,4.41,10,8.56,13.41a44.75,44.75,0,0,0,6.12,4.19c.7.4,1.41.78,2.12,1.15.21.11.41.23.63.33.73.32-.52-.28-.43-1.11L28,81.06c.25-.19.69-.47.94-.42a1.1,1.1,0,0,0-.18,0l-.65,0c-.73,0-1.45.11-2.17.18a48.68,48.68,0,0,0-6.91,1.19c-5.88,1.5-11.59,4.39-15.24,9.39-4,5.46-5.14,13.38-2,19.51,2.63,5.21,8,8.41,13.24,10.4A42.48,42.48,0,0,0,26,124l-1.45-1.1c2.19,5.34,5.7,10.13,11,12.78A27.6,27.6,0,0,0,50.61,138c10-1,19.51-5.1,28.16-10,2-1.12,4-2.28,5.9-3.58l-2-2C79,130.59,75.26,138.75,71.68,147c-.81,1.87-1.6,3.75-2.27,5.68-.55,1.61-1.37,3.6-.42,5.23.79,1.37,2.34,1.78,3.81,2,2.24.28,4.5.48,6.75.72l26.73,2.86,3.46.37a20.36,20.36,0,0,0,3.2.29c1.79-.09,2.65-1.46,2.88-3.08a61.26,61.26,0,0,0,.29-12.7c-.66-9.73-2.75-19.35-2.47-29.14l-2.79.75a8,8,0,0,0,3.83,2.64c1.4.52,2.94.81,4,1.9C120.08,125.82,122.21,123.7,120.84,122.34Z"/><path d="M72.74,81.79c.14.61.26,1.23.36,1.85,0,.14.05.29.07.43.07.47,0-.3,0,.18,0,.31.07.62.1.93a28.57,28.57,0,0,1,.08,3.7,1.51,1.51,0,0,0,1.5,1.5,1.54,1.54,0,0,0,1.5-1.5A29.07,29.07,0,0,0,75.63,81a1.51,1.51,0,0,0-1.84-1,1.54,1.54,0,0,0-1.05,1.85Z"/><path d="M124.88,71.91l.34,1.7a1.26,1.26,0,0,0,.27.51,1.18,1.18,0,0,0,.42.38,1.73,1.73,0,0,0,1.16.16A1.54,1.54,0,0,0,128,74l.15-.36a1.36,1.36,0,0,0,0-.8l-.34-1.7a1,1,0,0,0-.27-.51,1.06,1.06,0,0,0-.42-.39,1.12,1.12,0,0,0-.56-.18,1.19,1.19,0,0,0-.59,0,1.49,1.49,0,0,0-.9.69l-.15.36a1.55,1.55,0,0,0,0,.8Z"/><path d="M104.06,82.13l.34,2.38a1.14,1.14,0,0,0,.27.51,1.06,1.06,0,0,0,.42.39,1.5,1.5,0,0,0,2-.54l.15-.36a1.55,1.55,0,0,0,0-.8L107,81.33a1.06,1.06,0,0,0-.27-.51,1,1,0,0,0-.42-.38,1.49,1.49,0,0,0-2.05.53l-.15.36a1.55,1.55,0,0,0,0,.8Z"/><path d="M95.12,91.66c1.46,2.86,3,5.84,5.49,8a10.32,10.32,0,0,0,8.61,2.67c6.74-1.24,9.11-8.54,9.72-14.44a1.5,1.5,0,0,0-1.5-1.5,1.53,1.53,0,0,0-1.5,1.5c-.47,4.54-2.19,10.68-7.52,11.55s-8.67-5.27-10.71-9.25c-.88-1.72-3.47-.21-2.59,1.51Z"/><path d="M125.51,74.3l.68,3.06a1.52,1.52,0,0,0,.69.9,1.5,1.5,0,0,0,2.05-.54,1.65,1.65,0,0,0,.15-1.15l-.68-3.07a1.53,1.53,0,0,0-.69-.89,1.57,1.57,0,0,0-1.16-.16,1.54,1.54,0,0,0-.89.69,1.61,1.61,0,0,0-.15,1.16Z"/></g></g></svg>