<svg xmlns="http://www.w3.org/2000/svg" viewBox="0 0 84.4 109.73"><defs><style>.cls-1,.cls-2,.cls-3{stroke:#000;stroke-linecap:round;stroke-linejoin:round;stroke-width:5px;}.cls-2{fill:#9b862f;}.cls-3{fill:#3f3a0f;}</style></defs><g id="레이어_2" data-name="레이어 2"><g id="레이어_2-2" data-name="레이어 2"><path class="cls-1" d="M22.16,95.23s-6.26,1-6.26,6,5.22,6,5.22,6,8.37-1,8.36-6-7.83-6-7.83-6"/><path class="cls-2" d="M28.15,24.73S14.45,30.84,8.9,44.23c-3.34,8-7.75,14.83-6,26,3.71,23.72,17.85,31,17.85,31s30.53,1,46.26-16.89,3.7-41.73,3.7-41.73Z"/><path class="cls-3" d="M40.13,23.23S49-1.88,61.25,3.17s-4.41,24.06-4.41,24.06l19.84,10a6.79,6.79,0,0,1,5.22,7c0,6-9.4,4-9.4,4s-43.75-9.91-52.6-18c-3.16-2.88-4-2.85-6-5-1.31-1.41.42-6.26,1-7,1-1.28,5.92-2.9,7-3C24.53,15,29.69,16.23,40.13,23.23Z"/></g></g></svg>