<svg xmlns="http://www.w3.org/2000/svg" viewBox="0 0 118.53 175.75"><defs><style>.cls-1,.cls-2,.cls-3{stroke:#000;stroke-miterlimit:10;}.cls-2{fill:#a06912;}.cls-3{fill:#51440e;}</style></defs><g id="레이어_2" data-name="레이어 2"><g id="레이어_2-2" data-name="레이어 2"><path class="cls-1" d="M40.12,165s-7,3-4,8,9.5,0,9.5,0S47.12,166,40.12,165Z"/><path class="cls-2" d="M21.12,51S-8.08,92.18,3,129.1,42.12,169,42.12,169s48,1,58-41,0-73,0-73Z"/><path class="cls-3" d="M53.12,42s12-47,28-41,4,44,4,44,25,1,31,11-4,16-4,16-9.75,3-34.38,0-43.62-7-43.62-7-27-10-29-13-6-21,8-21S53.12,42,53.12,42Z"/></g></g></svg>