<svg xmlns="http://www.w3.org/2000/svg" viewBox="0 0 102.02 74.54"><defs><style>.cls-1{fill:ivory;}.cls-1,.cls-2{stroke:#000;stroke-linecap:round;stroke-linejoin:round;stroke-width:5px;}.cls-2{fill:#efef52;}</style></defs><g id="레이어_2" data-name="레이어 2"><g id="레이어_2-2" data-name="레이어 2"><path class="cls-1" d="M27.45,35.72s-23-12-18-20S35,26.88,35,26.88"/><path class="cls-1" d="M31.17,29.51s-8-24.67,1.14-26.89,10.4,25.82,10.4,25.82"/><path class="cls-1" d="M42.24,26S52.78,2.32,61.08,6.81,51.53,33,51.53,33"/><path class="cls-1" d="M49.26,31s23.13-14,27.79-5.25S53.36,42.48,53.36,42.48"/><path class="cls-1" d="M51.73,45.12S73,60.05,66.94,67.32s-23.8-14.43-23.8-14.43"/><path class="cls-1" d="M45,45.13s7,25-2.21,26.82-9.36-26.21-9.36-26.21"/><path class="cls-1" d="M35.88,50.25S23.64,73.12,15.7,68,27.12,42.66,27.12,42.66"/><path class="cls-1" d="M29,46.06s-25.57,4.43-26.45-5,27-6.6,27-6.6"/><path class="cls-1" d="M76.22,42.94s25.53,4.59,23.15,13.71-27.67-3-27.67-3-6.91-2.06-2.58-8.48C69.12,45.13,69,41.17,76.22,42.94Z"/><circle class="cls-2" cx="39.95" cy="39.22" r="9.5"/></g></g></svg>