<svg xmlns="http://www.w3.org/2000/svg" viewBox="0 0 105.06 101.28"><defs><style>.cls-1{stroke:#000;stroke-miterlimit:10;}</style></defs><g id="레이어_2" data-name="레이어 2"><g id="레이어_2-2" data-name="레이어 2"><path class="cls-1" d="M.55,50.78s-1,5,6,6,40-39,40-39l50,34s7,3,8-6-49-42-49-42-10-8-20,1S3.55,42.78.55,50.78Z"/><path class="cls-1" d="M13.1,43.07a3.21,3.21,0,0,1,4.84,2.32c1.38,9.09,6.07,39,8.61,42.39,3,4,2,6,14,6,10.74,0,32.69-5.61,37.19-6.79A2.93,2.93,0,0,1,79,86.92c1.22.18,4.56-.8,4.56-17.14A247.16,247.16,0,0,1,85,41.87a3.25,3.25,0,0,1,4.37-2.66l1.81.68a3.23,3.23,0,0,1,2.08,3.4L88.55,84.78s1,7-13,10-32,6-45,6c-12.41,0-14.8-25.51-15-27.83a2.11,2.11,0,0,0-.05-.35c-.39-2-4-20.16-4-25.82C11.55,44.78,12.22,43.67,13.1,43.07Z"/><path class="cls-1" d="M34.55,46.78s17-7,27-4c0,0,8,15,5,22l8-1s-2-22-11-26-31,2-31,2S26,41.4,26.79,50.59s1.76,20.19,1.76,20.19l6-3S32.55,50.78,34.55,46.78Z"/><path class="cls-1" d="M34.55,67.78s1.7,3.22,9.35,2.11,22.65-5.11,22.65-5.11l8-1a8.94,8.94,0,0,1-1.54,7c-2.46,3-32.46,6-32.46,6s-13-1-12-6S34.55,67.78,34.55,67.78Z"/><polygon class="cls-1" points="44.55 41.78 48.62 70.78 54.55 70.78 51.6 39.89 44.55 41.78"/><polygon class="cls-1" points="31.64 55.34 66.55 48.78 68.28 55.34 31.64 63.26 31.64 55.34"/></g></g></svg>