<svg xmlns="http://www.w3.org/2000/svg" viewBox="0 0 80.9 107.77"><g id="레이어_2" data-name="레이어 2"><g id="레이어_2-2" data-name="레이어 2"><path d="M65.91,2.54S55-3,39.35,2.54c0,0-13.69,9.24-9.78,24.94A25.13,25.13,0,0,0,48.14,46s26.4,2.77,29.33-16.62S65.91,2.54,65.91,2.54ZM56.35,41s-17-.17-19.28-13.88,6.6-18,6.6-18c6.92-3.62,12.54-1.73,12.54-1.73s13.41.83,14.27,15.33S56.35,41,56.35,41Z"/><path d="M77.13,27,61,1.3,57.3,3.75l2.85,4.48c4,1.43,9.77,5.1,10.33,14.43,0,.64,0,1.25,0,1.85L72.08,27Z"/><path d="M70.48,22.66c-.56-9.33-6.3-13-10.33-14.43L70.5,24.51C70.52,23.91,70.52,23.3,70.48,22.66Z"/><path d="M55.32,7.11,52.46.56l-4,3.78,1.2,2.71A16.14,16.14,0,0,1,55.32,7.11Z"/><path d="M63.21,37.62l1.15,2.6h5.42L67.07,34A18.85,18.85,0,0,1,63.21,37.62Z"/><path d="M67.07,34,55.32,7.11a16.14,16.14,0,0,0-5.63-.06L63.21,37.62A18.85,18.85,0,0,0,67.07,34Z"/><path d="M54.75,40.84l1.35,3h5.61l-1.87-4.28A20.92,20.92,0,0,1,56.35,41S55.75,40.94,54.75,40.84Z"/><path d="M46.06,8,43.78,2.77l-4.1,3.91,1.77,4a10.57,10.57,0,0,1,2.22-1.63A21.16,21.16,0,0,1,46.06,8Z"/><path d="M43.67,9.06a10.57,10.57,0,0,0-2.22,1.63l13.3,30.15c1,.1,1.6.11,1.6.11a20.92,20.92,0,0,0,3.49-1.34L46.06,8A21.16,21.16,0,0,0,43.67,9.06Z"/><path d="M38.14,15.4l-3-6.76L31.6,12l5.1,11.44A18.43,18.43,0,0,1,38.14,15.4Z"/><path d="M45.83,43.89h4.86l-1.89-4.3a20.53,20.53,0,0,1-6.37-3.33Z"/><path d="M36.7,23.44l5.73,12.82a20.53,20.53,0,0,0,6.37,3.33L38.14,15.4A18.43,18.43,0,0,0,36.7,23.44Z"/><path d="M36.73,21.52l-5.17,6.2,2.21,4.5,3.5-4.15c-.07-.33-.15-.66-.2-1A25.49,25.49,0,0,1,36.73,21.52Z"/><path d="M55,7.05l4.46-5.29L54.68,0l-6,7.25A16.85,16.85,0,0,1,55,7.05Z"/><path d="M48.64,7.25,36.73,21.52a25.49,25.49,0,0,0,.34,5.55c0,.34.13.67.2,1L55,7.05A16.85,16.85,0,0,0,48.64,7.25Z"/><path d="M67.38,5.19l-5.17-2L58.5,7.73a17.42,17.42,0,0,1,5,2.15Z"/><path d="M38.8,32.05l-1.23,1.53,2.47,5L42.15,36A14.38,14.38,0,0,1,38.8,32.05Z"/><path d="M58.5,7.73,38.8,32.05a14.38,14.38,0,0,0,3.35,4L63.54,9.88A17.42,17.42,0,0,0,58.5,7.73Z"/><path d="M44.17,40.19l2.48,5,4.14-5.06a24.49,24.49,0,0,1-5.1-1.84Z"/><path d="M74,11.8l-5.16-2-2.21,2.72a14.58,14.58,0,0,1,2.84,4.86Z"/><path d="M66.61,12.49,45.69,38.32a24.49,24.49,0,0,0,5.1,1.84L69.45,17.35A14.58,14.58,0,0,0,66.61,12.49Z"/><path d="M55,40.87h0l1.57,4.48,6.75-7.81a23,23,0,0,1-7,3.4S55.85,40.94,55,40.87Z"/><path d="M68.91,31.09l7.55-8.73-3.52-2.45-2.46,2.87A16.65,16.65,0,0,1,68.91,31.09Z"/><path d="M70.48,22.78,55,40.87c.84.07,1.34.08,1.34.08a23,23,0,0,0,7-3.4l5.59-6.46A16.65,16.65,0,0,0,70.48,22.78Z"/><path d="M33.41,25.53c.35,2.2-6.22,29.37-6.22,29.37s-4.4,16.89-5.14,22.76,4.41,8.67,4.41,8.67,4.41-2.06,2.2-3.53-2.2-5.14-2.2-5.14,1.47-9.54,4.83-16.88S36.74,29.9,36.74,29.9,33.07,23.33,33.41,25.53Z"/><path d="M60.33,39.37c-2.27,3.57-8.85,14-10.2,16.34-1.64,2.86-13.76,22.75-13.76,22.75s-3.3,4.34-7.71,4.34-2.2,3.53-2.2,3.53,5.85,3.75,12.1-3.56S61.71,46.82,61.71,46.82s6.92-9.43,5.6-13.13A20.3,20.3,0,0,1,60.33,39.37Z"/><path d="M67.31,33.69c0-.09-.07-.19-.12-.28-1.81-3.47-6.09,4.74-6.09,4.74l-.77,1.22A20.3,20.3,0,0,0,67.31,33.69Z"/><path d="M25,81.34s-.73,5.14-5.87,10.28-7.34,5.87-8.08,9.54-.73,6.61,2.2,6.61.74-4.41,2.94-6.61,8.44-5.87,9.73-8.08,3.32-8.81,3.32-8.81Z"/><path d="M.06,51.23s-.89-7.73,4.31-9a12.53,12.53,0,0,1,8.87.93s4.41,5.14,8.08,0S25,44.62,25,44.62s-.73,5.14-5.87,5.88-6.52-4.16-9.5-4.29a5.28,5.28,0,0,0-4.5,2.62s0,2.4-1.42,3.13S.09,52,.06,51.23Z"/><path d="M62.44,54.17l1,18.16S55.27,72.52,57,85c1.75,5.14,11.25-3.67,11.25-3.67s5.09-7.59,0-10L67.58,60,76.7,57.1s2.63,1.47,4.1-2.2-12.72-.73-12.72-.73S66.61,51.23,64.89,52,62.44,52,62.44,54.17Z"/></g></g></svg>