<svg xmlns="http://www.w3.org/2000/svg" viewBox="0 0 270.95 222.3"><defs><style>.cls-1,.cls-2,.cls-3,.cls-4,.cls-5{stroke:#000;}.cls-1,.cls-2,.cls-3,.cls-4,.cls-5,.cls-6{stroke-linecap:round;stroke-linejoin:round;}.cls-1,.cls-5{stroke-width:4px;}.cls-2{fill:#c4b36c;}.cls-2,.cls-3,.cls-4{stroke-width:5px;}.cls-3{fill:#eadec1;}.cls-5{fill:none;}.cls-6{fill:#fff;stroke:#fff;stroke-width:3px;}</style></defs><g id="레이어_2" data-name="레이어 2"><g id="레이어_2-2" data-name="레이어 2"><path class="cls-1" d="M137,36S66,21.9,65.27,32.89s-1.75,19,2.76,35.62S137,36,137,36Z"/><path class="cls-1" d="M137.82,36.68S182.53-5.81,190.53,3.27s4.19,33.41,4.19,33.41-13.49,10-54.34,2.55"/><path class="cls-2" d="M66,81.37S29,43.48,7,72.48s43.36,54.78,43.36,54.78"/><path class="cls-3" d="M57.24,97.41S40,70.48,5,75.48c0,0,12.71-20.77,33.85-11.89S68,82.48,68,82.48Z"/><path class="cls-2" d="M204,41.66s17.1-34.21,47.7-27.9S239.37,70.3,239.37,70.3"/><path class="cls-3" d="M216.91,48.5S222.18,19.39,258.53,17c0,0-17.08-12.48-38.29,5S205,43.48,205,43.48Z"/><path class="cls-3" d="M78,66.48s-35,29-28,99c0,0-15.86,2.06-.93,36s53.93,8,53.93,8,63,33,121-19c0,0,13,13,39-17,19-42-18-45-18-45s18-66-45-88S78,66.48,78,66.48Z"/><path class="cls-2" d="M193.72,38.51c-45.3,35-38.15,105.56-38.15,105.56C125.12,81.65,72.51,72.3,72.51,72.3s49.91-52.76,121.21-33.79"/><path class="cls-4" d="M150.77,143.14s-4.92,2.82-2.11,5.64,9.13,2.12,9.13,2.12,9-1.29,8.73-8.06S150.77,143.14,150.77,143.14Z"/><path class="cls-1" d="M91.53,131s12-10,16,7-8,14.17-8,14.17-10-1.17-11-10.17S91.53,131,91.53,131Z"/><path class="cls-1" d="M209.53,106s-11,2-11,15,16,11,16,11,10-1,8-15S209.53,106,209.53,106Z"/><path class="cls-1" d="M44,185.06s9.19-1.36,24.87-11.17,13.51,1.92,13.51,1.92S77,190.25,52.14,202"/><path class="cls-1" d="M254.27,183.25s-55.33-11.11-41.54-17.59,50.3,7.9,50.3,7.9"/><path class="cls-1" d="M267,158s-38.93,2-45.19-7,35.74,1,46.74-3"/><path class="cls-5" d="M157.16,148.41s8,12.26-3.32,15.41-6.05-7.7-6.05-7.7"/><path class="cls-5" d="M159.91,147.09s-.32,19.43,10.34,15.32,4.51-9.63,4.51-9.63"/><path class="cls-6" d="M94.65,135.36s-.17.62.33.62.55-.62.55-.62S95.15,134.26,94.65,135.36Z"/><path class="cls-6" d="M203.18,114s-.16.62.34.62.54-.62.54-.62S203.69,112.88,203.18,114Z"/><path class="cls-1" d="M58.91,211.67s31.11-19.49,35.82-33c0,0,6.8-9,5.67,1.28S90.2,203,90.2,203L71.94,219S62.74,215.22,58.91,211.67Z"/></g></g></svg>